<svg width="26" height="26" viewBox="0 0 26 26" fill="none" xmlns="http://www.w3.org/2000/svg">
<rect x="1.52588e-05" y="-4.57764e-05" width="26" height="26" rx="3" fill="#25D366"/>
<g filter="url(#filter0_d_1488_1544)">
<path d="M19.8034 8.68966C17.41 4.99982 12.5235 3.90285 8.73394 6.19653C5.04411 8.49021 3.8474 13.4765 6.24081 17.1663L6.44026 17.4655L5.64246 20.4572L8.63421 19.6594L8.93339 19.8589C10.2298 20.557 11.626 20.9559 13.0221 20.9559C14.518 20.9559 16.0139 20.557 17.3103 19.7592C21.0001 17.3657 22.0971 12.4792 19.8034 8.68966ZM17.7092 16.3685C17.3103 16.9668 16.8117 17.3657 16.1136 17.4655C15.7147 17.4655 15.2161 17.6649 13.2216 16.8671C11.5262 16.0693 10.1301 14.7729 9.13284 13.277C8.53449 12.5789 8.23531 11.6814 8.13559 10.7839C8.13559 9.98608 8.43476 9.28801 8.93339 8.78938C9.13284 8.58993 9.33229 8.49021 9.53174 8.49021H10.0304C10.2298 8.49021 10.4293 8.49021 10.529 8.88911C10.7284 9.38773 11.2271 10.5844 11.2271 10.6842C11.3268 10.7839 11.3268 10.9833 11.2271 11.0831C11.3268 11.2825 11.2271 11.482 11.1273 11.5817C11.0276 11.6814 10.9279 11.8809 10.8282 11.9806C10.6287 12.0803 10.529 12.2798 10.6287 12.4792C11.0276 13.0776 11.5262 13.6759 12.0249 14.1745C12.6232 14.6732 13.2216 15.0721 13.9196 15.3712C14.1191 15.471 14.3186 15.471 14.4183 15.2715C14.518 15.0721 15.0166 14.5734 15.2161 14.374C15.4155 14.1745 15.5153 14.1745 15.7147 14.2743L17.3103 15.0721C17.5098 15.1718 17.7092 15.2715 17.8089 15.3712C17.9087 15.6704 17.9087 16.0693 17.7092 16.3685Z" fill="white"/>
</g>
<defs>
<filter id="filter0_d_1488_1544" x="3.00002" y="3.99995" width="20" height="19.9559" filterUnits="userSpaceOnUse" color-interpolation-filters="sRGB">
<feFlood flood-opacity="0" result="BackgroundImageFix"/>
<feColorMatrix in="SourceAlpha" type="matrix" values="0 0 0 0 0 0 0 0 0 0 0 0 0 0 0 0 0 0 127 0" result="hardAlpha"/>
<feOffset dy="1"/>
<feGaussianBlur stdDeviation="1"/>
<feComposite in2="hardAlpha" operator="out"/>
<feColorMatrix type="matrix" values="0 0 0 0 0 0 0 0 0 0 0 0 0 0 0 0 0 0 0.1 0"/>
<feBlend mode="normal" in2="BackgroundImageFix" result="effect1_dropShadow_1488_1544"/>
<feBlend mode="normal" in="SourceGraphic" in2="effect1_dropShadow_1488_1544" result="shape"/>
</filter>
</defs>
</svg>
