<svg width="26" height="26" viewBox="0 0 26 26" fill="none" xmlns="http://www.w3.org/2000/svg">
<rect x="1.52588e-05" y="-4.57764e-05" width="26" height="26" rx="3" fill="#7F40BD"/>
<g filter="url(#filter0_d_1488_1550)">
<path d="M18.4772 11.7142C18.4964 9.45837 16.5752 7.3904 14.1944 7.10443C14.147 7.09881 14.0954 7.09028 14.0408 7.08121C13.923 7.06168 13.8011 7.04162 13.6781 7.04162C13.1902 7.04162 13.0598 7.38437 13.0254 7.58881C12.992 7.78756 13.0239 7.95446 13.1199 8.08512C13.2815 8.30484 13.5658 8.34384 13.7942 8.37512C13.8611 8.38437 13.9243 8.39296 13.9772 8.40484C16.1162 8.88281 16.8364 9.63424 17.1884 11.7551C17.197 11.8069 17.2009 11.8708 17.205 11.9385C17.2204 12.192 17.2524 12.7195 17.8194 12.7195H17.8195C17.8667 12.7195 17.9174 12.7154 17.9702 12.7073C18.4983 12.6271 18.4817 12.145 18.4738 11.9133C18.4716 11.848 18.4694 11.7863 18.475 11.7453C18.4764 11.735 18.4772 11.7245 18.4772 11.7142Z" fill="white"/>
<path d="M13.5397 6.27644C13.603 6.281 13.663 6.28537 13.7129 6.29303C17.2254 6.83322 18.8408 8.4974 19.2884 12.0374C19.296 12.0975 19.2972 12.1709 19.2985 12.2486C19.3029 12.5252 19.3121 13.1006 19.93 13.1125L19.9492 13.1127C20.143 13.1127 20.2971 13.0542 20.4074 12.9389C20.5997 12.7377 20.5863 12.4388 20.5755 12.1986C20.5729 12.1396 20.5703 12.0841 20.571 12.0355C20.6156 8.41509 17.4817 5.13206 13.8645 5.01C13.8495 5.0095 13.8352 5.01031 13.8207 5.01234C13.8136 5.01337 13.8004 5.01469 13.7779 5.01469C13.7418 5.01469 13.6974 5.01156 13.6504 5.00837C13.5935 5.00447 13.529 5 13.4636 5C12.8875 5 12.778 5.40944 12.764 5.6535C12.7317 6.21759 13.2774 6.25728 13.5397 6.27644Z" fill="white"/>
<path d="M19.1189 16.6125C19.0442 16.5555 18.967 16.4965 18.8947 16.4382C18.5112 16.1296 18.1032 15.8451 17.7087 15.57C17.6268 15.513 17.5449 15.4559 17.4633 15.3986C16.9578 15.0436 16.5034 14.8711 16.0741 14.8711C15.4959 14.8711 14.9918 15.1906 14.5757 15.8206C14.3913 16.0999 14.1677 16.2357 13.892 16.2357C13.7291 16.2357 13.5438 16.1892 13.3417 16.0974C11.7102 15.3576 10.5452 14.2233 9.87907 12.726C9.55704 12.0023 9.66145 11.5292 10.2282 11.1442C10.55 10.9258 11.1491 10.5191 11.1067 9.74043C11.0586 8.85612 9.10742 6.19528 8.2853 5.89309C7.93723 5.76509 7.57152 5.7639 7.19636 5.89012C6.25124 6.20784 5.57302 6.76581 5.23483 7.50359C4.90802 8.21649 4.92277 9.05356 5.27752 9.9243C6.30302 12.4419 7.7448 14.6369 9.56298 16.4482C11.3427 18.2213 13.53 19.6737 16.0643 20.7649C16.2927 20.8632 16.5323 20.9168 16.7072 20.9559C16.7669 20.9693 16.8183 20.9808 16.8559 20.9911C16.8765 20.9967 16.8977 20.9997 16.9191 20.9999L16.9391 21C16.9392 21 16.9391 21 16.9392 21C18.1312 21 19.5624 19.9108 20.0019 18.6691C20.387 17.5818 19.6839 17.0444 19.1189 16.6125Z" fill="white"/>
<path d="M14.0669 9.15224C13.8628 9.1574 13.4381 9.16793 13.2891 9.60049C13.2194 9.80262 13.2277 9.97812 13.3139 10.1221C13.4404 10.3334 13.6828 10.3981 13.9033 10.4337C14.7029 10.562 15.1135 11.0041 15.1956 11.825C15.2338 12.2077 15.4915 12.475 15.8225 12.475H15.8225C15.847 12.475 15.872 12.4736 15.8969 12.4705C16.2949 12.4232 16.4878 12.1308 16.4704 11.6015C16.4768 11.0491 16.1877 10.422 15.696 9.92243C15.2026 9.42137 14.6078 9.13918 14.0669 9.15224Z" fill="white"/>
</g>
<defs>
<filter id="filter0_d_1488_1550" x="3.00014" y="4" width="19.5807" height="20" filterUnits="userSpaceOnUse" color-interpolation-filters="sRGB">
<feFlood flood-opacity="0" result="BackgroundImageFix"/>
<feColorMatrix in="SourceAlpha" type="matrix" values="0 0 0 0 0 0 0 0 0 0 0 0 0 0 0 0 0 0 127 0" result="hardAlpha"/>
<feOffset dy="1"/>
<feGaussianBlur stdDeviation="1"/>
<feComposite in2="hardAlpha" operator="out"/>
<feColorMatrix type="matrix" values="0 0 0 0 0 0 0 0 0 0 0 0 0 0 0 0 0 0 0.1 0"/>
<feBlend mode="normal" in2="BackgroundImageFix" result="effect1_dropShadow_1488_1550"/>
<feBlend mode="normal" in="SourceGraphic" in2="effect1_dropShadow_1488_1550" result="shape"/>
</filter>
</defs>
</svg>
