<svg width="154" height="60" viewBox="0 0 154 60" fill="none" xmlns="http://www.w3.org/2000/svg">
<path d="M153.751 -1.90735e-05H11.2504V37.5002H153.751V-1.90735e-05Z" fill="#1C1D1E"/>
<path d="M142.501 30H0V60H142.501V30Z" fill="#DCB658"/>
<g filter="url(#filter0_d_1488_1585)">
<path d="M19.2476 44.0283H21.3543C21.8941 44.0283 22.2776 43.8899 22.5057 43.617C22.7338 43.344 22.8474 43.0143 22.8474 42.6239C22.8474 42.2344 22.7368 41.9038 22.5147 41.6308C22.2926 41.3579 21.9061 41.2205 21.3543 41.2205H19.2476V44.0283ZM21.8125 38.6815C22.5117 38.6815 23.1063 38.7931 23.6004 39.0152C24.0934 39.2373 24.4948 39.5342 24.8066 39.9057C25.1223 40.2782 25.3494 40.6985 25.4939 41.1657C25.6383 41.6338 25.71 42.1199 25.71 42.6239C25.71 43.1279 25.6233 43.614 25.449 44.0821C25.2747 44.5503 25.0138 44.9696 24.6721 45.3421C24.3295 45.7136 23.9101 46.0115 23.4181 46.2326C22.9231 46.4547 22.3593 46.5663 21.7198 46.5663H19.2476V51.0843H16.386V38.6815H21.8125ZM31.6504 38.6815H40.3081V41.2205H34.5121V43.5602H39.4625V46.0981H34.5121V48.5464H40.3081V51.0843H31.6504V38.6815ZM46.896 51.0843V38.6815H49.7586V43.5064H50.676C51.2039 43.5064 51.6212 43.4068 51.927 43.2086C52.2328 43.0114 52.4818 42.6179 52.674 42.0302L53.7358 38.6815H56.7061L55.5905 42.3002C55.3982 42.9118 55.1522 43.4217 54.8524 43.8301C54.5526 44.2385 54.21 44.5084 53.8265 44.6399C54.3424 44.8082 54.7438 45.1051 55.0327 45.5314C55.3206 45.9567 55.5546 46.4756 55.7339 47.0882L56.9222 51.0843H53.7727L52.7826 47.5205C52.6143 46.9079 52.3683 46.5095 52.0445 46.3232C51.7198 46.137 51.2945 46.0443 50.7666 46.0443H49.7586V51.0843H46.896ZM67.1277 41.2563V44.2076C67.1277 45.1798 67.0769 46.0862 66.9753 46.9258C66.8737 47.7665 66.6606 48.5036 66.3359 49.14C66.0121 49.7765 65.541 50.2865 64.9235 50.67C64.3049 51.0545 63.4742 51.2706 62.4303 51.3184L61.9981 49.0145C62.5618 48.8701 63.0001 48.6689 63.3118 48.4109C63.6246 48.153 63.8557 47.8352 64.0051 47.4567C64.1555 47.0792 64.2451 46.635 64.275 46.125C64.3049 45.615 64.3198 45.0304 64.3198 44.37V38.6815H72.7624V51.0843H69.8639V41.2563H67.1277ZM86.5327 48.636H82.5366L81.7985 51.0843H78.7207L83.0944 38.6815H86.0467L90.3486 51.0843H87.2887L86.5327 48.636ZM83.2567 46.2963H85.8126L85.5606 45.4497L84.5705 42.0302H84.4988L83.5087 45.4497L83.2567 46.2963ZM105.721 45.3063L104.55 47.5384L103.471 49.4279H101.437L100.339 47.4657L99.2224 45.3242H99.1507V51.0843H96.288V38.6815H98.9166L100.968 42.7145L102.427 45.6658H102.534L104.046 42.606L106.008 38.6815H108.637V51.0843H105.774V45.3063H105.721ZM122.299 48.636H118.303L117.565 51.0843H114.487L118.861 38.6815H121.813L126.115 51.0843H123.055L122.299 48.636ZM119.023 46.2963H121.579L121.327 45.4497L120.337 42.0302H120.265L119.275 45.4497L119.023 46.2963Z" fill="#1C1D1E"/>
</g>
<path d="M27.4013 13.8749L22.6491 21.2009H20.0933V8.79908H22.9549V16.2336H23.0097L27.7857 8.79908H30.3536V21.2009H27.4909V13.8749H27.4013ZM39.8051 21.2009V16.1788H35.8448V21.2009H32.9831V8.79908H35.8448V13.605H39.8051V8.79908H42.7036V21.2009H39.8051ZM50.4449 11.3729V21.2009H47.5832V11.3729H44.4327V8.79908H53.5774V11.3729H50.4449ZM55.3066 8.79908H63.9652V11.337H58.1692V13.6767H63.1186V16.2147H58.1692V18.6629H63.9652V21.2009H55.3066V8.79908ZM69.1865 14.1449H71.2932C71.833 14.1449 72.2165 14.0074 72.4446 13.7345C72.6727 13.4616 72.7872 13.1309 72.7872 12.7414C72.7872 12.351 72.6757 12.0213 72.4536 11.7484C72.2324 11.4755 71.845 11.337 71.2932 11.337H69.1865V14.1449ZM71.7524 8.79908C72.4506 8.79908 73.0452 8.91063 73.5403 9.13176C74.0323 9.35388 74.4337 9.6507 74.7465 10.0232C75.0612 10.3947 75.2893 10.8151 75.4328 11.2832C75.5772 11.7514 75.6489 12.2374 75.6489 12.7414C75.6489 13.2454 75.5622 13.7315 75.3879 14.1997C75.2136 14.6668 74.9527 15.0871 74.611 15.4587C74.2694 15.8312 73.849 16.128 73.357 16.3501C72.8619 16.5722 72.2982 16.6828 71.6587 16.6828H69.1865V21.2009H66.3249V8.79908H71.7524ZM80.2228 18.6629H82.4728C82.9888 18.6629 83.3912 18.5285 83.679 18.2556C83.9669 17.9856 84.1113 17.6549 84.1113 17.2685C84.1113 16.881 83.9699 16.5513 83.688 16.2814C83.4061 16.0085 83.0007 15.873 82.4728 15.873H80.2228V18.6629ZM77.3611 21.2009V8.79908H80.2228V13.3351H82.7965C84.0814 13.3351 85.0835 13.6797 85.8026 14.373C86.5228 15.0632 86.8833 16.0234 86.8833 17.2506C86.8833 17.7057 86.8106 18.1709 86.6672 18.639C86.5228 19.1072 86.2947 19.5335 85.9829 19.911C85.6711 20.2895 85.2628 20.6013 84.7588 20.8413C84.2548 21.0814 83.6372 21.2009 82.9051 21.2009H77.3611ZM88.7928 8.79908H97.4514V11.337H91.6544V13.6767H96.6048V16.2147H91.6544V18.6629H97.4514V21.2009H88.7928V8.79908ZM102.673 14.1449H104.778C105.319 14.1449 105.703 14.0074 105.931 13.7345C106.159 13.4616 106.272 13.1309 106.272 12.7414C106.272 12.351 106.162 12.0213 105.94 11.7484C105.718 11.4755 105.331 11.337 104.778 11.337H102.673V14.1449ZM105.238 8.79908C105.937 8.79908 106.53 8.91063 107.025 9.13176C107.517 9.35388 107.92 9.6507 108.232 10.0232C108.547 10.3947 108.774 10.8151 108.919 11.2832C109.063 11.7514 109.135 12.2374 109.135 12.7414C109.135 13.2454 109.047 13.7315 108.874 14.1997C108.7 14.6668 108.439 15.0871 108.097 15.4587C107.755 15.8312 107.335 16.128 106.843 16.3501C106.348 16.5722 105.783 16.6828 105.145 16.6828H102.673V21.2009H99.811V8.79908H105.238ZM117.669 21.2009V16.1788H113.709V21.2009H110.847V8.79908H113.709V13.605H117.669V8.79908H120.567V21.2009H117.669ZM130 18.7536H126.005L125.267 21.2009H122.189L126.563 8.79908H129.515L133.817 21.2009H130.756L130 18.7536ZM126.725 16.4129H129.281L129.029 15.5672L128.039 12.1468H127.966L126.976 15.5672L126.725 16.4129ZM144.907 8.79908V21.2009H142.045V16.5035H141.09C140.563 16.5035 140.149 16.5961 139.849 16.7824C139.548 16.9677 139.314 17.3671 139.147 17.9797L138.247 21.2009H135.024L136.087 17.889C136.219 17.4567 136.372 17.0613 136.546 16.7007C136.72 16.3412 136.999 16.0533 137.383 15.8372C137.01 15.7176 136.696 15.5403 136.438 15.3063C136.18 15.0722 135.973 14.8053 135.817 14.5054C135.661 14.2056 135.55 13.8899 135.484 13.5602C135.418 13.2305 135.385 12.9148 135.385 12.6149C135.385 12.1587 135.46 11.7036 135.61 11.2474C135.759 10.7912 135.991 10.3828 136.303 10.0232C136.615 9.66265 137.016 9.36882 137.509 9.14072C138.001 8.91362 138.582 8.79908 139.255 8.79908H144.907ZM142.045 11.337H139.849C139.308 11.337 138.922 11.4665 138.688 11.7275C138.454 11.9854 138.337 12.3271 138.337 12.7504C138.337 13.1369 138.454 13.4437 138.688 13.6648C138.922 13.8899 139.29 14.0014 139.794 14.0014H142.045V11.337Z" fill="white"/>
<defs>
<filter id="filter0_d_1488_1585" x="16.386" y="38.6815" width="109.729" height="13.6369" filterUnits="userSpaceOnUse" color-interpolation-filters="sRGB">
<feFlood flood-opacity="0" result="BackgroundImageFix"/>
<feColorMatrix in="SourceAlpha" type="matrix" values="0 0 0 0 0 0 0 0 0 0 0 0 0 0 0 0 0 0 127 0" result="hardAlpha"/>
<feOffset dy="1"/>
<feComposite in2="hardAlpha" operator="out"/>
<feColorMatrix type="matrix" values="0 0 0 0 1 0 0 0 0 1 0 0 0 0 1 0 0 0 0.5 0"/>
<feBlend mode="normal" in2="BackgroundImageFix" result="effect1_dropShadow_1488_1585"/>
<feBlend mode="normal" in="SourceGraphic" in2="effect1_dropShadow_1488_1585" result="shape"/>
</filter>
</defs>
</svg>
