<svg width="20" height="20" viewBox="0 0 20 20" fill="none" xmlns="http://www.w3.org/2000/svg">
<path fill-rule="evenodd" clip-rule="evenodd" d="M10.6643 2.25253C10.2855 1.91578 9.7145 1.91578 9.3357 2.25253L9.33566 2.25256L6.16437 5.07146L6.16436 5.07146L4.00001 6.99534V14.324C4.00001 15.2951 4.00213 15.9228 4.06431 16.3853C4.12263 16.819 4.21677 16.955 4.29291 17.0311C4.36904 17.1073 4.50498 17.2014 4.93871 17.2597C5.40121 17.3219 6.02892 17.324 7 17.324V14.324C7 12.6672 8.34312 11.324 10 11.324C11.6569 11.324 13 12.6672 13 14.324L13 17.324C13.9711 17.324 14.5988 17.3219 15.0613 17.2597C15.495 17.2014 15.631 17.1073 15.7071 17.0311C15.7832 16.955 15.8774 16.819 15.9357 16.3853C15.9979 15.9228 16 15.2951 16 14.324V6.99534L13.8356 5.07146L10.6643 2.25256L10.6643 2.25253ZM11 17.324V14.324C11 13.7717 10.5523 13.324 10 13.324C9.44769 13.324 9 13.7717 9 14.324V17.324H11ZM8 19.324H12H13L13.0658 19.324H13.0659C13.9523 19.3241 14.7161 19.3241 15.3278 19.2419C15.9833 19.1538 16.6116 18.955 17.1213 18.4453C17.631 17.9357 17.8297 17.3073 17.9179 16.6518C18.0001 16.0402 18 15.2764 18 14.3899L18 14.324V8.77312L18.3356 9.07146C18.7484 9.43838 19.3805 9.40119 19.7474 8.98841C20.1143 8.57563 20.0771 7.94356 19.6644 7.57664L15.1644 3.57664L14.5427 4.27605L15.1644 3.57664L11.9931 0.757766L11.9931 0.757734C10.8565 -0.252619 9.14352 -0.252619 8.00694 0.757734L8.00691 0.757766L4.83564 3.57664L4.83564 3.57664L0.335646 7.57664C-0.0771358 7.94356 -0.114316 8.57563 0.252601 8.98841C0.619519 9.40119 1.25159 9.43838 1.66437 9.07146L2.00001 8.77312V14.324L2.00001 14.3899C1.99996 15.2763 1.99991 16.0402 2.08215 16.6518C2.17028 17.3073 2.36903 17.9357 2.87868 18.4453C3.38834 18.955 4.01669 19.1538 4.67221 19.2419C5.28386 19.3241 6.04766 19.3241 6.93412 19.324H6.93417L7 19.324H8Z" fill="#1C1D1E"/>
</svg>
