<svg width="16" height="20" viewBox="0 0 16 20" fill="none" xmlns="http://www.w3.org/2000/svg">
<path d="M7.7291 10.7144C9.25739 10.7144 10.4963 9.47546 10.4963 7.94717C10.4963 6.41889 9.25739 5.17997 7.7291 5.17997C6.20081 5.17997 4.96189 6.41889 4.96189 7.94717C4.96189 9.47546 6.20081 10.7144 7.7291 10.7144Z" fill="#1C1D1E"/>
<path fill-rule="evenodd" clip-rule="evenodd" d="M0 8.17891C0 3.68049 3.22614 -3.05176e-05 7.72456 -3.05176e-05C12.223 -3.05176e-05 15.4491 3.58962 15.4491 8.17891C15.4491 12.6451 10.5003 17.5846 8.51775 19.5635C8.46309 19.618 8.41068 19.6703 8.3607 19.7203C8.27982 19.8084 8.18151 19.8788 8.07201 19.927C7.9625 19.9751 7.84418 20 7.72456 20C7.60493 20 7.48661 19.9751 7.37711 19.927C7.2676 19.8788 7.16929 19.8084 7.08842 19.7203L7.03306 19.665C5.1242 17.7565 0 12.6335 0 8.17891ZM13.6316 8.17891C13.6316 4.54383 11.087 1.81751 7.72456 1.81751C4.3621 1.81751 1.81754 4.77102 1.81754 8.17891C1.81754 11.5868 5.72526 15.7672 7.72456 17.8119C7.74761 17.7883 7.77092 17.7645 7.79447 17.7404C9.81345 15.676 13.6316 11.7721 13.6316 8.17891Z" fill="#1C1D1E"/>
</svg>
