<svg width="20" height="20" viewBox="0 0 20 20" fill="none" xmlns="http://www.w3.org/2000/svg">
<path d="M18.5252 7.21752H17.5244C17.4529 7.02407 17.3743 6.83455 17.2877 6.64699L18.0005 5.94137C18.2897 5.68628 18.4707 5.31445 18.4707 4.90065C18.4707 4.54325 18.3356 4.21733 18.1133 3.97141L18.1146 3.97272L16.0306 1.88865C15.786 1.66699 15.46 1.5319 15.1026 1.5319C14.6882 1.5319 14.3163 1.71421 14.0619 2.00275L13.3517 2.71231C13.1648 2.6264 12.9759 2.54771 12.7825 2.47623L12.7877 1.47551C12.7897 1.44796 12.791 1.41583 12.791 1.38304C12.791 0.643321 12.2113 0.0393468 11.4814 0H8.52974C7.79592 0.0386911 7.21555 0.643321 7.21555 1.3837C7.21555 1.41583 7.21687 1.44796 7.21883 1.4801V1.47551V2.47492C7.02538 2.5464 6.83586 2.62509 6.6483 2.71165L5.944 2.00079C5.6889 1.71028 5.31641 1.52731 4.90196 1.52731C4.54456 1.52731 4.21864 1.6624 3.97338 1.88471L3.97469 1.8834L1.88996 3.96813C1.66831 4.21274 1.53322 4.53866 1.53322 4.89606C1.53322 5.31117 1.71552 5.683 2.00472 5.93678L2.71296 6.64568C2.6264 6.83389 2.54771 7.02341 2.47557 7.21752L1.47551 7.21293C1.44796 7.21096 1.41583 7.20965 1.3837 7.20965C0.643977 7.20965 0.0393468 7.79002 0 8.5199V11.4709C0.0386911 12.2047 0.643977 12.7858 1.38435 12.7858C1.41649 12.7858 1.44862 12.7844 1.4801 12.7825H1.47551H2.47557C2.54705 12.9759 2.62575 13.1655 2.71231 13.353L2.00144 14.0553C1.71093 14.3111 1.52862 14.6836 1.52862 15.0994C1.52862 15.4568 1.66372 15.7833 1.88603 16.0292L1.88471 16.0279L3.96944 18.112C4.19175 18.333 4.498 18.4694 4.83638 18.4694C4.84097 18.4694 4.84556 18.4694 4.85015 18.4694H4.8495C5.27772 18.4609 5.66267 18.2812 5.93941 17.9959L6.64765 17.2877C6.83586 17.3743 7.02603 17.4529 7.22014 17.5251L7.21555 18.5245C7.21359 18.552 7.21228 18.5842 7.21228 18.6163C7.21228 19.356 7.79264 19.9607 8.52253 20H11.4742C12.2074 19.9607 12.7877 19.3567 12.7877 18.617C12.7877 18.5842 12.7864 18.552 12.7844 18.5206V18.5252V17.5244C12.9786 17.4523 13.1681 17.3736 13.3563 17.287L14.0573 17.9946C14.3347 18.2799 14.719 18.4596 15.1459 18.4688H15.1485C15.1525 18.4688 15.1577 18.4688 15.1623 18.4688C15.5 18.4688 15.8063 18.333 16.0299 18.114L18.1133 16.0306C18.333 15.8083 18.4681 15.5027 18.4681 15.1649C18.4681 15.159 18.4681 15.1531 18.4681 15.1466C18.4596 14.7197 18.2812 14.3367 17.9972 14.0599L17.2883 13.351C17.3743 13.1641 17.4529 12.9753 17.5244 12.7818L18.5245 12.7864C18.552 12.7884 18.5835 12.7897 18.6156 12.7897C19.356 12.7897 19.9607 12.2093 19.9993 11.4788V8.52777C19.96 7.79395 19.356 7.21359 18.6156 7.21359C18.5835 7.21359 18.5514 7.2149 18.5192 7.21687H18.5238L18.5252 7.21752ZM18.3612 11.1476L16.9434 11.1404C16.9264 11.1404 16.9119 11.1489 16.8949 11.1502C16.8339 11.1561 16.7775 11.1673 16.7237 11.185L16.729 11.1837C16.5257 11.2283 16.3584 11.3562 16.2627 11.5293L16.2607 11.5326C16.2293 11.5791 16.2011 11.6322 16.1794 11.6886L16.1775 11.6939C16.1722 11.7096 16.1597 11.7208 16.1552 11.7372C16.0043 12.2644 15.8096 12.7228 15.5663 13.1504L15.5827 13.1189C15.5735 13.1353 15.5741 13.1543 15.5656 13.1714C15.5466 13.2127 15.5309 13.2619 15.519 13.3123L15.5184 13.3176C15.5033 13.3648 15.4922 13.4199 15.4869 13.4763V13.4796C15.4856 13.4973 15.4843 13.5176 15.4843 13.5379C15.4843 13.675 15.5243 13.8029 15.5932 13.9104L15.5912 13.9078C15.6207 13.9655 15.6541 14.0147 15.6922 14.0599L15.6915 14.0586C15.7027 14.0711 15.7059 14.0868 15.7178 14.0986L16.7204 15.1026L15.1013 16.7204L14.1072 15.7178C14.094 15.704 14.0757 15.7 14.0619 15.6876C14.0226 15.6548 13.978 15.6246 13.9307 15.5991L13.9268 15.5971C13.7989 15.5256 13.6455 15.4836 13.4829 15.4836C13.4815 15.4836 13.4802 15.4836 13.4789 15.4836C13.4291 15.4889 13.3838 15.4981 13.3405 15.5099L13.3464 15.5086C13.2796 15.5217 13.2205 15.5413 13.1655 15.5669L13.17 15.565C13.1556 15.5722 13.1392 15.5715 13.1248 15.5794C12.7274 15.8063 12.2677 16.0017 11.785 16.1427L11.7391 16.1538C11.7214 16.1591 11.7096 16.1716 11.6926 16.1781C11.6375 16.1998 11.5896 16.2247 11.5457 16.2542L11.5483 16.2522C11.4991 16.2791 11.4571 16.308 11.4178 16.3407L11.4191 16.3394C11.3844 16.3735 11.3522 16.4116 11.324 16.4516L11.3221 16.4542C11.2545 16.5283 11.2066 16.6208 11.187 16.7237L11.1863 16.727C11.1706 16.7755 11.1581 16.8319 11.1529 16.8903V16.8936C11.1516 16.9106 11.143 16.925 11.143 16.9428L11.1424 18.3605H8.85304L8.86025 16.9467C8.86025 16.9283 8.85107 16.9126 8.84976 16.8949C8.84451 16.8345 8.83271 16.7788 8.81566 16.7257L8.81697 16.7309C8.77238 16.5257 8.64319 16.3571 8.46875 16.2607L8.46482 16.2588C8.41891 16.2279 8.36645 16.2004 8.31071 16.1788L8.30546 16.1768C8.28972 16.1716 8.27792 16.1591 8.26152 16.1545C7.73297 16.0037 7.27326 15.8082 6.84438 15.5643L6.87586 15.5807C6.86078 15.5722 6.84307 15.5728 6.82799 15.5656C6.78077 15.544 6.72569 15.5256 6.66798 15.5138L6.66273 15.5131C6.6024 15.4941 6.53289 15.4836 6.46075 15.4836C6.31582 15.4836 6.18139 15.5269 6.06925 15.6017L6.07187 15.6004C6.02203 15.6266 5.97941 15.6555 5.94006 15.6882L5.94137 15.6869C5.9276 15.6994 5.9099 15.7033 5.89678 15.7164L4.89409 16.7191L3.27431 15.1L4.27897 14.1058C4.29208 14.0927 4.29668 14.075 4.30848 14.0619C4.34324 14.0206 4.37471 13.974 4.4016 13.9248L4.40357 13.9209C4.42783 13.8829 4.45013 13.8396 4.46849 13.7937L4.47046 13.7884C4.49538 13.6966 4.51112 13.5911 4.51374 13.4822V13.4802C4.50849 13.4258 4.49866 13.3766 4.48488 13.3287L4.4862 13.3346C4.47308 13.273 4.45537 13.2186 4.43177 13.1674L4.43373 13.172C4.42586 13.1556 4.42652 13.1379 4.41734 13.1222C4.18978 12.7254 3.99436 12.2664 3.85468 11.7837L3.84353 11.7391C3.83894 11.7221 3.82582 11.7096 3.81992 11.6932C3.79763 11.6368 3.77271 11.5883 3.74254 11.5437L3.74451 11.547C3.71828 11.4985 3.68942 11.4565 3.65729 11.4178L3.6586 11.4191C3.6245 11.3844 3.58712 11.3529 3.54777 11.3247L3.54515 11.3227C3.5058 11.2893 3.46121 11.2591 3.41399 11.2335L3.41006 11.2316C3.37268 11.2145 3.32743 11.1994 3.28153 11.1883L3.27628 11.187C3.22579 11.1699 3.16676 11.1575 3.10643 11.1522H3.10315C3.0861 11.1509 3.07233 11.1424 3.05528 11.1424L1.63748 11.1417V8.85173L3.05528 8.85894C3.16021 8.85763 3.25923 8.83599 3.35038 8.79861L3.34514 8.80058C3.38055 8.78484 3.41006 8.7691 3.43826 8.75139L3.43498 8.75336C3.494 8.72254 3.54515 8.68778 3.59171 8.64844L3.5904 8.64909C3.6186 8.62352 3.64417 8.59729 3.66778 8.56909L3.66909 8.56778C3.70582 8.52515 3.73861 8.47728 3.76549 8.42678L3.76746 8.42219C3.78517 8.39137 3.80287 8.3553 3.8173 8.31792L3.81927 8.31268C3.82582 8.29431 3.83828 8.27989 3.84353 8.26153C3.99436 7.73362 4.18913 7.27392 4.43308 6.8457L4.41668 6.87717C4.42586 6.86143 4.42521 6.84307 4.43308 6.82733C4.45341 6.7834 4.47046 6.73093 4.48226 6.67716L4.48292 6.67191C4.49603 6.61552 4.5039 6.55059 4.5039 6.4837C4.5039 6.27582 4.4298 6.08565 4.30717 5.93678L4.30848 5.93809C4.29733 5.92498 4.2934 5.90858 4.28094 5.89678L3.27956 4.89409L4.89868 3.27497L5.89416 4.27897C5.93022 4.30848 5.97023 4.33602 6.0122 4.35897L6.01613 4.36094C6.04367 4.38258 6.0745 4.40357 6.10663 4.42259L6.11056 4.42455C6.21549 4.48226 6.34009 4.51767 6.4719 4.52161H6.47321L6.47649 4.52226C6.48436 4.52226 6.49157 4.51636 6.49879 4.51636C6.62076 4.51112 6.73421 4.47964 6.8352 4.42783L6.83061 4.4298C6.84504 4.42259 6.86143 4.42586 6.87652 4.41799C7.27326 4.19109 7.73231 3.99502 8.21496 3.85533L8.26021 3.84419C8.27661 3.8396 8.28776 3.82714 8.30349 3.82189C8.36317 3.79894 8.41498 3.77205 8.46285 3.73992L8.46023 3.74188C8.50548 3.71696 8.54417 3.69008 8.58023 3.66057L8.57892 3.66188C8.61696 3.62516 8.65106 3.58515 8.68122 3.54187L8.68319 3.53925C8.71336 3.50252 8.74156 3.46121 8.76582 3.41793L8.76779 3.41399C8.78615 3.37334 8.80254 3.32546 8.81369 3.27628L8.815 3.27103C8.83074 3.22316 8.84255 3.16742 8.84779 3.10906V3.10578C8.8491 3.08807 8.85763 3.07364 8.85763 3.05594L8.85828 1.63814H11.1476L11.1404 3.052C11.1404 3.07037 11.1496 3.08545 11.1502 3.10381C11.1555 3.1648 11.1673 3.22054 11.1843 3.27431L11.183 3.26907C11.1955 3.32415 11.2119 3.37202 11.2322 3.41793L11.2302 3.41268C11.2565 3.46056 11.284 3.50187 11.3155 3.5399L11.3142 3.53859C11.3457 3.5845 11.3804 3.6245 11.4178 3.66122C11.4526 3.69008 11.4912 3.71631 11.5319 3.73992L11.5358 3.74188C11.5804 3.77205 11.6322 3.79894 11.6867 3.81992L11.6919 3.82189C11.7083 3.82779 11.7201 3.84025 11.7372 3.84484C12.2644 3.99502 12.7228 4.19044 13.1504 4.43439L13.1195 4.41799C13.134 4.42586 13.1497 4.42259 13.1641 4.4298C13.2605 4.47964 13.374 4.51112 13.494 4.51636H13.496C13.5038 4.51636 13.5117 4.52226 13.5196 4.52226L13.5379 4.51702C13.6645 4.51177 13.7819 4.47833 13.8862 4.42324L13.8816 4.42521C13.9203 4.40357 13.953 4.38193 13.9839 4.35701L13.9819 4.35832C14.0265 4.33405 14.0652 4.30848 14.1006 4.27962L14.0993 4.28094L15.1033 3.2789L16.7224 4.89868L15.7184 5.89285C15.7053 5.90596 15.7007 5.92367 15.6882 5.93744C15.6535 5.97875 15.622 6.02531 15.5951 6.0745L15.5932 6.07843C15.5381 6.15909 15.5027 6.2568 15.4961 6.36304V6.36435C15.4876 6.40108 15.483 6.4437 15.483 6.48698C15.483 6.55059 15.4935 6.61158 15.5125 6.66863L15.5112 6.6647C15.5243 6.72634 15.542 6.78012 15.5656 6.83127L15.5636 6.82668C15.5715 6.84307 15.5709 6.86143 15.58 6.87783C15.8076 7.27392 16.003 7.73231 16.1427 8.21431L16.1538 8.2589C16.1591 8.27858 16.1722 8.293 16.1788 8.31137C16.1945 8.35202 16.2109 8.38547 16.2293 8.41826L16.2273 8.41432C16.3657 8.67467 16.6332 8.85042 16.9421 8.85632L18.3605 8.85697L18.3612 11.1476ZM10 6.55781C8.09889 6.55781 6.55715 8.09955 6.55715 10.0007C6.55715 11.9018 8.09889 13.4435 10 13.4435C11.9011 13.4435 13.4428 11.9018 13.4428 10.0007C13.4402 8.1002 11.9005 6.56043 10 6.55781ZM10 11.8041C9.00387 11.8041 8.1966 10.9968 8.1966 10.0007C8.1966 9.00453 9.00387 8.19726 10 8.19726C10.9961 8.19726 11.8034 9.00453 11.8034 10.0007C11.8021 10.9961 10.9955 11.8027 10 11.8041Z" fill="#1C1D1E"/>
</svg>
