<svg width="20" height="20" viewBox="0 0 20 20" fill="none" xmlns="http://www.w3.org/2000/svg">
<path fill-rule="evenodd" clip-rule="evenodd" d="M11.9475 5.29027C11.5895 5.09675 11.1589 4.99999 10.6557 4.99999H6.2V15H8.18839V11.2409H9.9881C10.0365 11.3474 10.0994 11.5022 10.1768 11.7054C10.2639 11.8989 10.3558 12.1166 10.4525 12.3585C10.559 12.6004 10.6654 12.8568 10.7718 13.1277C10.888 13.389 10.9944 13.6405 11.0911 13.8824C11.1976 14.1243 11.2895 14.3469 11.3669 14.5501C11.454 14.7436 11.5169 14.8936 11.5556 15H13.7036L11.9039 10.9071C12.1652 10.7716 12.3974 10.6023 12.6006 10.3991C12.8038 10.1863 12.9731 9.95887 13.1086 9.71697C13.2537 9.4654 13.3601 9.20415 13.4279 8.93323C13.5053 8.65263 13.544 8.38171 13.544 8.12046C13.544 7.76245 13.4859 7.3996 13.3698 7.03192C13.2634 6.65456 13.0892 6.31591 12.8473 6.01596C12.6151 5.71601 12.3151 5.47411 11.9475 5.29027ZM10.2058 9.44121H8.18839V6.78519H10.2058C10.6606 6.78519 11.0041 6.91097 11.2363 7.16255C11.4782 7.41412 11.5991 7.73342 11.5991 8.12046C11.5991 8.50749 11.483 8.82679 11.2508 9.07837C11.0186 9.32026 10.6702 9.44121 10.2058 9.44121Z" fill="#1C1D1E"/>
<path fill-rule="evenodd" clip-rule="evenodd" d="M0 1.99999C0 0.895423 0.895431 -7.62939e-06 2 -7.62939e-06H18C19.1046 -7.62939e-06 20 0.895423 20 1.99999V18C20 19.1046 19.1046 20 18 20H2C0.895431 20 0 19.1046 0 18V1.99999ZM2 1.99999H18V18H2V1.99999Z" fill="#1C1D1E"/>
</svg>
